<svg xmlns="http://www.w3.org/2000/svg" version="1.0" width="461.000000pt" height="350.000000pt" viewBox="0 0 461.000000 350.000000" preserveAspectRatio="xMidYMid meet">

<g transform="translate(0.000000,350.000000) scale(0.100000,-0.100000)" fill="#800000" stroke="none">
<path d="M2170 3419 c-125 -9 -277 -39 -409 -80 -117 -38 -336 -149 -444 -227 -218 -156 -421 -400 -531 -637 -115 -246 -157 -440 -157 -715 0 -292 51 -506 181 -759 246 -478 696 -801 1232 -886 126 -19 359 -19 491 0 522 79 985 409 1226 875 143 277 199 522 188 830 -9 240 -58 446 -157 658 l-40 85 -67 -132 -66 -133 21 -61 c107 -310 107 -641 0 -952 -147 -429 -509 -771 -951 -899 -252 -73 -508 -75 -772 -7 -432 111 -819 463 -969 879 -61 171 -88 322 -88 502 0 142 10 224 43 355 142 564 618 988 1196 1065 143 20 392 8 519 -24 202 -50 373 -131 542 -256 l32 -24 134 33 133 32 -56 53 c-316 296 -781 457 -1231 425z" fill="#800000"/>
<path d="M1827 2635 c-339 -226 -620 -414 -623 -418 -9 -8 31 -1115 40 -1125 3 -2 1223 805 1242 822 2 2 -35 1069 -38 1102 l-3 31 -618 -412z m547 -195 c9 -239 16 -445 16 -457 0 -19 -92 -84 -526 -374 -289 -193 -529 -347 -532 -344 -6 6 -18 293 -34 794 l-3 114 529 353 c292 194 531 352 532 351 2 -1 10 -198 18 -437z" fill="#800000"/>
<path d="M2128 2352 l-98 -67 0 -98 0 -97 105 70 105 70 0 95 c0 52 -3 95 -7 94 -5 0 -52 -30 -105 -67z" fill="#800000"/>
<path d="M1623 2153 l-173 -116 0 -132 c0 -73 3 -146 6 -163 l6 -31 180 120 c177 119 180 121 174 151 -3 17 -6 88 -6 159 0 71 -3 129 -7 128 -5 0 -86 -52 -180 -116z" fill="#800000"/>
<path d="M1918 2013 l-98 -66 0 -94 c0 -52 4 -93 8 -91 5 2 54 32 110 68 102 65 102 65 97 100 -3 19 -5 61 -5 93 0 31 -3 57 -7 56 -5 0 -52 -30 -105 -66z" fill="#800000"/>
<path d="M3328 2812 c-280 -75 -508 -139 -508 -142 0 -3 85 -51 188 -108 l188 -103 78 -222 c43 -122 81 -225 85 -228 3 -3 112 208 241 468 130 260 235 473 235 472 0 -1 -228 -62 -507 -137z" fill="#800000"/>
<path d="M1911 1424 l-624 -416 506 -219 505 -220 621 413 c341 227 621 415 621 418 0 4 -923 409 -992 435 -7 3 -294 -182 -637 -411z" fill="#800000"/>
</g>
</svg>